<svg version="1.1" id="Layer_1" xmlns="http://www.w3.org/2000/svg" xmlns:xlink="http://www.w3.org/1999/xlink" x="0px" y="0px"
	 width="100%" viewBox="0 0 468 60" enable-background="new 0 0 468 60" xml:space="preserve">
<path fill="#FDF6EB" opacity="1.000000" stroke="none" 
	d="
M1.000000,23.000000 
	C1.000000,15.669920 1.000000,8.339840 1.000000,1.007320 
	C156.927536,1.004880 312.855072,1.004880 468.891296,1.004880 
	C468.891296,20.918140 468.891296,40.837070 468.891296,61.000000 
	C323.645874,61.000000 178.291595,61.000000 32.367462,60.655102 
	C30.323259,58.703205 29.074129,56.071690 27.330755,55.688442 
	C22.776983,54.687363 21.430925,52.121773 21.486338,47.920536 
	C21.532541,44.417667 20.171452,41.260353 16.224363,41.448189 
	C9.761880,41.755733 8.395282,37.971268 7.947496,32.798721 
	C7.552983,28.241541 5.961948,24.387922 1.000000,23.000000 
M206.276077,25.890768 
	C205.858704,25.921549 205.441345,25.952330 204.183823,25.666357 
	C198.569855,24.659424 202.590057,30.473190 199.750366,31.958815 
	C199.504593,29.739172 199.295197,27.848150 198.926392,24.517328 
	C196.803955,26.145967 195.455231,27.180910 194.098022,28.222368 
	C190.247940,24.760571 185.795166,24.061253 183.971817,27.506395 
	C183.002228,29.338448 183.224503,32.842438 184.410431,34.546967 
	C186.559448,37.635704 191.240540,36.355598 194.682297,32.308044 
	C198.222229,37.390030 201.419540,37.618526 205.587921,33.007771 
	C205.901123,33.132122 206.226212,33.193352 206.626999,34.004726 
	C207.135071,34.670258 207.636017,35.900467 208.152390,35.906982 
	C210.898148,35.941631 213.647766,35.669552 216.232498,35.513535 
	C216.232498,34.116634 215.929214,32.616386 216.289001,31.296934 
	C217.397980,27.229750 215.411621,25.770605 211.808701,25.624741 
	C210.180130,25.558811 208.538330,25.820406 206.276077,25.890768 
M338.934845,28.301828 
	C335.470245,24.819298 331.642670,24.282877 329.224304,27.192421 
	C326.998718,29.870089 327.179260,32.719414 329.892731,35.002365 
	C332.641388,37.314949 336.322998,36.332787 339.785095,32.772812 
	C340.712341,33.866486 342.089752,36.037743 342.490234,35.870434 
	C344.395782,35.074368 346.149200,33.759754 347.649658,32.311520 
	C347.879578,32.089607 346.506195,30.206511 346.245972,29.747408 
	C346.938721,28.566019 347.619965,27.404234 348.475372,25.945404 
	C344.009644,24.967602 340.772675,25.013142 338.934845,28.301828 
M255.342697,30.178087 
	C253.186508,25.366814 250.804993,24.517263 244.603714,26.354355 
	C244.603714,29.437328 244.603714,32.520302 244.603714,35.565853 
	C252.274582,36.650803 253.452209,36.103039 256.068115,31.331154 
	C256.214783,32.779522 256.361481,34.227890 256.506195,35.656910 
	C259.276917,35.656910 261.782532,35.656910 263.389069,35.656910 
	C263.389069,32.203041 263.389069,29.135426 263.389069,25.886889 
	C261.461945,25.886889 259.079346,25.886889 256.513397,25.886889 
	C256.331360,27.628361 256.179138,29.084312 255.342697,30.178087 
M302.549286,28.807611 
	C302.029968,27.742783 301.450470,25.757921 301.002747,25.787203 
	C299.706940,25.871941 298.464111,26.766556 297.539703,27.188454 
	C295.955017,26.591709 294.312500,25.973198 292.237915,25.191975 
	C292.237915,29.284508 292.237915,32.536804 292.237915,36.723751 
	C294.174072,35.739990 295.573914,35.028725 297.286774,34.158417 
	C299.595917,38.392265 301.778229,35.372627 304.117584,33.664284 
	C307.723297,37.897434 311.270752,36.278843 314.035614,33.975494 
	C317.119141,37.303818 320.550293,35.640846 323.480713,35.735016 
	C323.145050,32.325405 322.841888,29.246111 322.484375,25.614716 
	C319.326843,26.110962 315.665131,27.890234 313.379181,26.795803 
	C308.579041,24.497704 305.587585,25.340445 302.549286,28.807611 
M75.279541,29.276232 
	C70.044029,24.115486 67.812073,24.017105 62.275700,28.703045 
	C58.625702,24.879328 54.582161,23.921549 52.640251,27.082935 
	C51.498276,28.942045 51.499714,32.646484 52.639935,34.508865 
	C54.571728,37.664169 59.303085,36.419952 62.721252,32.403320 
	C66.564873,37.330170 69.509369,37.509537 74.081032,33.204006 
	C74.399879,32.903717 75.278862,33.198189 75.697937,33.997841 
	C77.625694,36.792500 78.464310,36.741238 80.186226,34.282227 
	C82.054848,34.970280 83.757858,35.597355 85.740402,36.327358 
	C85.740402,32.222992 85.740402,29.119411 85.740402,24.929026 
	C83.775452,25.941246 82.432968,26.632814 80.930725,27.406673 
	C79.995804,27.041567 78.284576,26.373299 76.573357,25.705030 
	C76.348289,26.731865 76.123215,27.758701 75.279541,29.276232 
M439.081512,38.093861 
	C439.475006,38.313843 439.868530,38.533821 440.154602,39.714272 
	C440.154602,44.614796 440.154602,49.515320 440.154602,54.415844 
	C440.695526,54.403126 441.236481,54.390404 441.777405,54.377682 
	C441.777405,49.179390 441.777405,43.981102 442.127075,38.173775 
	C445.996063,38.173775 449.865051,38.173775 453.934601,38.173775 
	C453.934601,32.820667 453.934601,28.945578 453.934601,25.389750 
	C446.574890,24.716787 440.088989,23.892939 433.584106,23.696215 
	C432.018219,23.648859 429.381653,25.379278 428.955353,26.805580 
	C426.437195,35.230434 428.321777,37.727745 436.809662,38.292858 
	C437.222076,38.320316 437.603119,38.818913 437.998138,40.002583 
	C437.998138,43.917145 437.998138,47.831707 437.998138,51.746265 
	C438.286743,51.775139 438.575348,51.804008 438.863953,51.832882 
	C438.863953,47.431965 438.863953,43.031052 439.081512,38.093861 
M388.424103,26.496162 
	C386.697754,26.743391 384.971405,26.990620 382.144287,27.395487 
	C379.535797,24.872131 375.682739,23.980820 373.662964,27.029858 
	C372.497772,28.788839 372.306183,32.201462 373.234955,34.112148 
	C374.787689,37.306301 379.100189,36.718830 383.485413,33.291935 
	C385.379333,37.121395 386.989471,37.096916 389.044830,34.079082 
	C390.637421,34.920242 392.121429,35.704063 394.072601,36.734615 
	C394.072601,32.369595 394.072601,29.119389 394.072601,25.869181 
	C393.697632,25.573166 393.322662,25.277153 392.947693,24.981138 
	C391.933563,25.936502 390.956909,26.939268 389.867676,27.799505 
	C389.690796,27.939203 389.015198,27.447418 388.424103,26.496162 
M278.113007,31.815197 
	C279.389191,26.132524 277.051971,24.655813 268.953552,26.162333 
	C268.953552,29.250044 268.953552,32.368324 268.953552,35.152176 
	C276.391266,35.152176 283.666992,35.152176 291.013123,35.152176 
	C290.279755,32.972984 289.638763,30.369774 288.501221,28.005438 
	C287.991699,26.946434 286.490265,25.746519 285.433014,25.740936 
	C284.349518,25.735214 282.801453,26.878006 282.265198,27.930182 
	C281.108154,30.200369 280.469116,32.734554 279.312500,36.032108 
	C278.580688,34.286461 278.220490,33.427258 278.113007,31.815197 
M141.200516,35.060875 
	C141.500336,34.490124 141.800156,33.919369 141.726715,34.059155 
	C143.812073,34.924667 145.673843,35.697384 147.824997,36.590202 
	C149.021149,32.480648 149.962723,29.245743 150.904312,26.010839 
	C150.561844,25.678061 150.219391,25.345284 149.876938,25.012506 
	C148.270599,26.045261 146.664261,27.078016 145.328400,27.936878 
	C144.719330,27.389734 143.068726,25.555801 142.814590,25.732330 
	C139.898468,27.757849 136.938187,25.180609 133.577927,25.913866 
	C134.573181,29.433290 135.496643,32.698795 136.457306,36.095860 
	C138.183746,35.958054 139.493500,35.853508 141.200516,35.060875 
M225.468018,27.566908 
	C224.153473,26.817266 222.838943,26.067625 221.524399,25.317984 
	C221.081589,25.810326 220.638779,26.302670 220.195969,26.795012 
	C221.699432,29.862581 223.061584,33.021969 224.909180,35.865986 
	C225.109955,36.175060 228.114700,34.662560 228.748001,34.414474 
	C231.053162,35.191814 232.840668,35.794594 234.861481,36.476048 
	C236.026352,32.475658 236.966110,29.248293 237.905884,26.020926 
	C237.575912,25.688858 237.245956,25.356789 236.915985,25.024721 
	C235.298096,26.045362 233.680206,27.066006 232.130585,28.043585 
	C230.382751,24.668547 229.466919,24.497101 225.468018,27.566908 
M87.615799,35.679985 
	C90.921669,35.585228 94.227531,35.490467 97.601013,35.393772 
	C97.601013,32.291149 97.601013,29.196526 97.601013,24.726864 
	C94.111061,28.224764 90.659103,25.421507 87.271004,25.843975 
	C87.271004,29.269962 87.271004,32.080799 87.615799,35.679985 
M168.106339,33.243362 
	C168.708221,34.165459 169.310089,35.087559 169.911972,36.009659 
	C171.185089,35.148483 172.458191,34.287312 173.015320,33.910454 
	C174.579407,34.735641 176.108658,35.542442 178.147430,36.618065 
	C178.147430,32.206562 178.147430,29.095932 178.147430,24.467426 
	C175.801743,26.049677 174.320480,27.048847 173.565460,27.558126 
	C171.934860,26.800562 170.309052,26.045221 168.105347,25.021397 
	C168.105347,28.386105 168.105347,30.374603 168.106339,33.243362 
M107.965851,32.226650 
	C109.039452,35.870659 111.898064,36.842350 114.967224,35.846336 
	C116.509995,35.345673 118.126030,33.229233 118.563217,31.545914 
	C119.479004,28.019833 117.617958,25.573683 113.948051,25.390530 
	C110.017357,25.194365 107.705719,27.201479 107.965851,32.226650 
M105.082787,25.636393 
	C103.157951,25.636393 101.233109,25.636393 99.322433,25.636393 
	C99.322433,29.428450 99.322433,32.656517 99.322433,35.690552 
	C102.064117,35.690552 104.468384,35.690552 106.119766,35.690552 
	C106.370438,32.587578 106.633186,29.937580 106.756020,27.281109 
	C106.779205,26.779600 106.245789,26.252354 105.082787,25.636393 
M370.794800,26.193806 
	C368.317352,25.980513 365.839935,25.767218 363.422852,25.559120 
	C363.422852,29.531145 363.422852,32.702271 363.422852,35.696465 
	C366.177887,35.696465 368.556427,35.696465 369.942780,35.696465 
	C370.325226,32.453430 370.643372,29.755457 370.794800,26.193806 
M163.421326,25.610464 
	C157.675903,25.618528 157.711288,25.602482 159.827164,30.268559 
	C160.145157,30.969793 160.064713,31.913403 159.979553,32.725060 
	C159.605270,36.292336 161.307663,36.606644 163.508408,35.205032 
	C164.317001,32.880684 165.639877,30.964319 166.655273,28.896935 
	C167.759018,26.649645 166.923340,25.437075 163.421326,25.610464 
M119.993767,28.117065 
	C121.354492,30.543428 122.715218,32.969791 124.647606,36.415512 
	C126.259384,33.928028 127.973991,31.362646 129.580734,28.731390 
	C129.888107,28.228058 129.825577,27.464909 129.822433,26.822174 
	C129.821121,26.554831 129.500595,26.043764 129.371887,26.058243 
	C126.235626,26.411085 123.105675,26.819941 119.993767,28.117065 
M354.851318,33.567623 
	C355.889191,34.532997 356.927094,35.498371 357.299408,35.844700 
	C359.129761,32.828522 360.506500,30.815058 361.574860,28.649469 
	C361.911560,27.967020 361.462006,26.096973 361.304199,26.088821 
	C358.377991,25.937695 355.441498,25.986252 352.507141,25.992760 
	C353.227875,27.396906 354.045258,28.762402 354.628693,30.221445 
	C354.921661,30.954121 354.789062,31.856964 354.851318,33.567623 
M153.464905,25.659153 
	C152.699875,28.852345 151.934845,32.045536 151.056885,35.710129 
	C153.312363,35.710129 154.495377,35.710129 156.706192,35.710129 
	C155.889999,32.104946 155.160294,28.881844 153.464905,25.659153 
M238.831665,27.563330 
	C238.831665,30.306780 238.831665,33.050232 238.831665,35.746223 
	C240.507126,35.746223 241.581177,35.746223 242.711884,35.746223 
	C242.711884,32.287666 242.711884,29.074064 242.711884,25.225925 
	C241.148331,25.788046 240.034256,26.188568 238.831665,27.563330 
z"/>
<path fill="#056172" opacity="1.000000" stroke="none" 
	d="
M1.000000,23.468658 
	C5.961948,24.387922 7.552983,28.241541 7.947496,32.798721 
	C8.395282,37.971268 9.761880,41.755733 16.224363,41.448189 
	C20.171452,41.260353 21.532541,44.417667 21.486338,47.920536 
	C21.430925,52.121773 22.776983,54.687363 27.330755,55.688442 
	C29.074129,56.071690 30.323259,58.703205 31.898806,60.655102 
	C21.732637,61.000000 11.465273,61.000000 1.000000,61.000000 
	C1.000000,48.646477 1.000000,36.291897 1.000000,23.468658 
z"/>
<path fill="#383737" opacity="1.000000" stroke="none" 
	d="
M437.998749,39.098114 
	C437.603119,38.818913 437.222076,38.320316 436.809662,38.292858 
	C428.321777,37.727745 426.437195,35.230434 428.955353,26.805580 
	C429.381653,25.379278 432.018219,23.648859 433.584106,23.696215 
	C440.088989,23.892939 446.574890,24.716787 453.934601,25.389750 
	C453.934601,28.945578 453.934601,32.820667 453.934601,38.173775 
	C449.865051,38.173775 445.996063,38.173775 441.700592,38.442226 
	C440.936737,38.725052 440.599396,38.739429 440.262024,38.753799 
	C439.868530,38.533821 439.475006,38.313843 438.735596,38.440498 
	C438.389679,38.787140 437.998749,39.098114 437.998749,39.098114 
z"/>
<path fill="#10525D" opacity="1.000000" stroke="none" 
	d="
M75.897369,33.216084 
	C75.278862,33.198189 74.399879,32.903717 74.081032,33.204006 
	C69.509369,37.509537 66.564873,37.330170 62.721252,32.403320 
	C59.303085,36.419952 54.571728,37.664169 52.639935,34.508865 
	C51.499714,32.646484 51.498276,28.942045 52.640251,27.082935 
	C54.582161,23.921549 58.625702,24.879328 62.275700,28.703045 
	C67.812073,24.017105 70.044029,24.115486 75.635643,29.472691 
	C75.960289,30.851461 75.928833,32.033772 75.897369,33.216084 
M55.905289,29.669941 
	C55.808834,29.633322 55.712379,29.596703 55.615929,29.560080 
	C55.714378,29.727051 55.812828,29.894020 55.961655,30.751623 
	C57.196636,31.340336 58.431614,31.929050 59.666592,32.517765 
	C59.797577,32.160442 59.928562,31.803123 60.059547,31.445803 
	C58.724445,30.937323 57.389343,30.428841 55.905289,29.669941 
z"/>
<path fill="#12545F" opacity="1.000000" stroke="none" 
	d="
M388.497101,26.871838 
	C389.015198,27.447418 389.690796,27.939203 389.867676,27.799505 
	C390.956909,26.939268 391.933563,25.936502 392.947693,24.981138 
	C393.322662,25.277153 393.697632,25.573166 394.072601,25.869181 
	C394.072601,29.119389 394.072601,32.369595 394.072601,36.734615 
	C392.121429,35.704063 390.637421,34.920242 389.044830,34.079082 
	C386.989471,37.096916 385.379333,37.121395 383.485413,33.291935 
	C379.100189,36.718830 374.787689,37.306301 373.234955,34.112148 
	C372.306183,32.201462 372.497772,28.788839 373.662964,27.029858 
	C375.682739,23.980820 379.535797,24.872131 382.144287,27.395487 
	C384.971405,26.990620 386.697754,26.743391 388.497101,26.871838 
M376.904022,29.679892 
	C376.810638,29.642193 376.717255,29.604494 376.623871,29.566797 
	C376.721924,29.729622 376.819946,29.892447 376.978821,30.781612 
	C379.411041,34.267128 381.937958,31.265631 384.376587,31.099390 
	C381.933746,30.708828 379.490906,30.318264 376.904022,29.679892 
z"/>
<path fill="#0B4E5A" opacity="1.000000" stroke="none" 
	d="
M277.986633,32.191624 
	C278.220490,33.427258 278.580688,34.286461 279.312500,36.032108 
	C280.469116,32.734554 281.108154,30.200369 282.265198,27.930182 
	C282.801453,26.878006 284.349518,25.735214 285.433014,25.740936 
	C286.490265,25.746519 287.991699,26.946434 288.501221,28.005438 
	C289.638763,30.369774 290.279755,32.972984 291.013123,35.152176 
	C283.666992,35.152176 276.391266,35.152176 268.953552,35.152176 
	C268.953552,32.368324 268.953552,29.250044 268.953552,26.162333 
	C277.051971,24.655813 279.389191,26.132524 277.986633,32.191624 
z"/>
<path fill="#044A56" opacity="1.000000" stroke="none" 
	d="
M302.923462,29.476700 
	C305.587585,25.340445 308.579041,24.497704 313.379181,26.795803 
	C315.665131,27.890234 319.326843,26.110962 322.484375,25.614716 
	C322.841888,29.246111 323.145050,32.325405 323.480713,35.735016 
	C320.550293,35.640846 317.119141,37.303818 314.035614,33.975494 
	C311.270752,36.278843 307.723297,37.897434 303.946899,33.009377 
	C303.491943,31.395212 303.207703,30.435957 302.923462,29.476700 
M309.292236,28.438677 
	C309.010193,28.707783 308.728119,28.976891 308.446045,29.245993 
	C308.557526,29.362720 308.669037,29.479450 308.780518,29.596174 
	C309.062439,29.326847 309.344391,29.057520 309.292236,28.438677 
z"/>
<path fill="#084C59" opacity="1.000000" stroke="none" 
	d="
M205.091858,33.051960 
	C201.419540,37.618526 198.222229,37.390030 194.682297,32.308044 
	C191.240540,36.355598 186.559448,37.635704 184.410431,34.546967 
	C183.224503,32.842438 183.002228,29.338448 183.971817,27.506395 
	C185.795166,24.061253 190.247940,24.760571 194.098022,28.222368 
	C195.455231,27.180910 196.803955,26.145967 198.926392,24.517328 
	C199.295197,27.848150 199.504593,29.739172 199.750366,31.958815 
	C202.590057,30.473190 198.569855,24.659424 204.583679,26.266155 
	C205.019653,28.927958 205.055756,30.989958 205.091858,33.051960 
M186.399124,31.430975 
	C189.407516,33.210495 189.407516,33.210495 189.471146,29.427595 
	C188.375885,29.909584 187.399948,30.339062 186.399124,31.430975 
z"/>
<path fill="#0B4F5B" opacity="1.000000" stroke="none" 
	d="
M141.001892,35.404919 
	C139.493500,35.853508 138.183746,35.958054 136.457306,36.095860 
	C135.496643,32.698795 134.573181,29.433290 133.577927,25.913866 
	C136.938187,25.180609 139.898468,27.757849 142.814590,25.732330 
	C143.068726,25.555801 144.719330,27.389734 145.328400,27.936878 
	C146.664261,27.078016 148.270599,26.045261 149.876938,25.012506 
	C150.219391,25.345284 150.561844,25.678061 150.904312,26.010839 
	C149.962723,29.245743 149.021149,32.480648 147.824997,36.590202 
	C145.673843,35.697384 143.812073,34.924667 141.726715,34.059155 
	C141.800156,33.919369 141.500336,34.490124 141.001892,35.404919 
z"/>
<path fill="#0B4F5B" opacity="1.000000" stroke="none" 
	d="
M225.883514,27.549137 
	C229.466919,24.497101 230.382751,24.668547 232.130585,28.043585 
	C233.680206,27.066006 235.298096,26.045362 236.915985,25.024721 
	C237.245956,25.356789 237.575912,25.688858 237.905884,26.020926 
	C236.966110,29.248293 236.026352,32.475658 234.861481,36.476048 
	C232.840668,35.794594 231.053162,35.191814 228.748001,34.414474 
	C228.114700,34.662560 225.109955,36.175060 224.909180,35.865986 
	C223.061584,33.021969 221.699432,29.862581 220.195969,26.795012 
	C220.638779,26.302670 221.081589,25.810326 221.524399,25.317984 
	C222.838943,26.067625 224.153473,26.817266 225.883514,27.549137 
z"/>
<path fill="#155661" opacity="1.000000" stroke="none" 
	d="
M87.443405,35.285812 
	C87.271004,32.080799 87.271004,29.269962 87.271004,25.843975 
	C90.659103,25.421507 94.111061,28.224764 97.601013,24.726864 
	C97.601013,29.196526 97.601013,32.291149 97.601013,35.393772 
	C94.227531,35.490467 90.921669,35.585228 87.443405,35.285812 
z"/>
<path fill="#12535F" opacity="1.000000" stroke="none" 
	d="
M168.105835,32.803230 
	C168.105347,30.374603 168.105347,28.386105 168.105347,25.021397 
	C170.309052,26.045221 171.934860,26.800562 173.565460,27.558126 
	C174.320480,27.048847 175.801743,26.049677 178.147430,24.467426 
	C178.147430,29.095932 178.147430,32.206562 178.147430,36.618065 
	C176.108658,35.542442 174.579407,34.735641 173.015320,33.910454 
	C172.458191,34.287312 171.185089,35.148483 169.911972,36.009659 
	C169.310089,35.087559 168.708221,34.165459 168.105835,32.803230 
z"/>
<path fill="#175762" opacity="1.000000" stroke="none" 
	d="
M256.029572,30.396441 
	C253.452209,36.103039 252.274582,36.650803 244.603714,35.565853 
	C244.603714,32.520302 244.603714,29.437328 244.610199,26.353096 
	C250.804993,24.517263 253.186508,25.366814 255.670273,30.323242 
	C255.997849,30.468397 256.029572,30.396441 256.029572,30.396441 
z"/>
<path fill="#0B4E5A" opacity="1.000000" stroke="none" 
	d="
M302.736389,29.142157 
	C303.207703,30.435957 303.491943,31.395212 303.896484,32.634407 
	C301.778229,35.372627 299.595917,38.392265 297.286774,34.158417 
	C295.573914,35.028725 294.174072,35.739990 292.237915,36.723751 
	C292.237915,32.536804 292.237915,29.284508 292.237915,25.191975 
	C294.312500,25.973198 295.955017,26.591709 297.539703,27.188454 
	C298.464111,26.766556 299.706940,25.871941 301.002747,25.787203 
	C301.450470,25.757921 302.029968,27.742783 302.736389,29.142157 
z"/>
<path fill="#10525E" opacity="1.000000" stroke="none" 
	d="
M338.938934,32.816296 
	C336.322998,36.332787 332.641388,37.314949 329.892731,35.002365 
	C327.179260,32.719414 326.998718,29.870089 329.224304,27.192421 
	C331.642670,24.282877 335.470245,24.819298 338.940063,29.032873 
	C338.943176,30.781378 338.941071,31.798836 338.938934,32.816296 
z"/>
<path fill="#145560" opacity="1.000000" stroke="none" 
	d="
M107.919434,31.823614 
	C107.705719,27.201479 110.017357,25.194365 113.948051,25.390530 
	C117.617958,25.573683 119.479004,28.019833 118.563217,31.545914 
	C118.126030,33.229233 116.509995,35.345673 114.967224,35.846336 
	C111.898064,36.842350 109.039452,35.870659 107.919434,31.823614 
z"/>
<path fill="#094D59" opacity="1.000000" stroke="none" 
	d="
M75.797653,33.606964 
	C75.928833,32.033772 75.960289,30.851461 75.944946,29.227343 
	C76.123215,27.758701 76.348289,26.731865 76.573357,25.705032 
	C78.284576,26.373299 79.995804,27.041567 80.930725,27.406673 
	C82.432968,26.632814 83.775452,25.941246 85.740402,24.929026 
	C85.740402,29.119411 85.740402,32.222992 85.740402,36.327358 
	C83.757858,35.597355 82.054848,34.970280 80.186226,34.282227 
	C78.464310,36.741238 77.625694,36.792500 75.797653,33.606964 
z"/>
<path fill="#0F515D" opacity="1.000000" stroke="none" 
	d="
M206.902527,25.933411 
	C208.538330,25.820406 210.180130,25.558811 211.808701,25.624741 
	C215.411621,25.770605 217.397980,27.229750 216.289001,31.296934 
	C215.929214,32.616386 216.232498,34.116634 216.232498,35.513535 
	C213.647766,35.669552 210.898148,35.941631 208.152390,35.906982 
	C207.636017,35.900467 207.135071,34.670258 206.737732,33.161842 
	C206.866470,30.190445 206.884506,28.061928 206.902527,25.933411 
z"/>
<path fill="#215E68" opacity="1.000000" stroke="none" 
	d="
M339.362000,32.794556 
	C338.941071,31.798836 338.943176,30.781378 338.972229,29.383213 
	C340.772675,25.013142 344.009644,24.967602 348.475372,25.945404 
	C347.619965,27.404234 346.938721,28.566019 346.245972,29.747408 
	C346.506195,30.206511 347.879578,32.089607 347.649658,32.311520 
	C346.149200,33.759754 344.395782,35.074368 342.490234,35.870434 
	C342.089752,36.037743 340.712341,33.866486 339.362000,32.794556 
z"/>
<path fill="#0F515D" opacity="1.000000" stroke="none" 
	d="
M256.048828,30.863796 
	C256.029572,30.396441 255.997849,30.468397 256.012390,30.504332 
	C256.179138,29.084312 256.331360,27.628361 256.513397,25.886889 
	C259.079346,25.886889 261.461945,25.886889 263.389069,25.886889 
	C263.389069,29.135426 263.389069,32.203041 263.389069,35.656910 
	C261.782532,35.656910 259.276917,35.656910 256.506195,35.656910 
	C256.361481,34.227890 256.214783,32.779522 256.048828,30.863796 
z"/>
<path fill="#024855" opacity="1.000000" stroke="none" 
	d="
M105.526001,25.686687 
	C106.245789,26.252354 106.779205,26.779600 106.756020,27.281109 
	C106.633186,29.937580 106.370438,32.587578 106.119766,35.690552 
	C104.468384,35.690552 102.064117,35.690552 99.322433,35.690552 
	C99.322433,32.656517 99.322433,29.428450 99.322433,25.636393 
	C101.233109,25.636393 103.157951,25.636393 105.526001,25.686687 
z"/>
<path fill="#054A57" opacity="1.000000" stroke="none" 
	d="
M370.878174,26.625645 
	C370.643372,29.755457 370.325226,32.453430 369.942780,35.696465 
	C368.556427,35.696465 366.177887,35.696465 363.422852,35.696465 
	C363.422852,32.702271 363.422852,29.531145 363.422852,25.559120 
	C365.839935,25.767218 368.317352,25.980513 370.878174,26.625645 
z"/>
<path fill="#044A57" opacity="1.000000" stroke="none" 
	d="
M163.883224,25.611511 
	C166.923340,25.437075 167.759018,26.649645 166.655273,28.896935 
	C165.639877,30.964319 164.317001,32.880684 163.508408,35.205032 
	C161.307663,36.606644 159.605270,36.292336 159.979553,32.725060 
	C160.064713,31.913403 160.145157,30.969793 159.827164,30.268559 
	C157.711288,25.602482 157.675903,25.618528 163.883224,25.611511 
z"/>
<path fill="#014855" opacity="1.000000" stroke="none" 
	d="
M119.984177,27.667900 
	C123.105675,26.819941 126.235626,26.411085 129.371887,26.058243 
	C129.500595,26.043764 129.821121,26.554831 129.822433,26.822174 
	C129.825577,27.464909 129.888107,28.228058 129.580734,28.731390 
	C127.973991,31.362646 126.259384,33.928028 124.647606,36.415512 
	C122.715218,32.969791 121.354492,30.543428 119.984177,27.667900 
z"/>
<path fill="#014855" opacity="1.000000" stroke="none" 
	d="
M354.850128,33.125237 
	C354.789062,31.856964 354.921661,30.954121 354.628693,30.221445 
	C354.045258,28.762402 353.227875,27.396906 352.507141,25.992756 
	C355.441498,25.986252 358.377991,25.937695 361.304199,26.088821 
	C361.462006,26.096973 361.911560,27.967020 361.574860,28.649469 
	C360.506500,30.815058 359.129761,32.828522 357.299408,35.844700 
	C356.927094,35.498371 355.889191,34.532997 354.850128,33.125237 
z"/>
<path fill="#004754" opacity="1.000000" stroke="none" 
	d="
M153.947754,25.658947 
	C155.160294,28.881844 155.889999,32.104946 156.706192,35.710129 
	C154.495377,35.710129 153.312363,35.710129 151.056885,35.710129 
	C151.934845,32.045536 152.699875,28.852345 153.947754,25.658947 
z"/>
<path fill="#004754" opacity="1.000000" stroke="none" 
	d="
M238.875931,27.076210 
	C240.034256,26.188568 241.148331,25.788046 242.711884,25.225925 
	C242.711884,29.074064 242.711884,32.287666 242.711884,35.746223 
	C241.581177,35.746223 240.507126,35.746223 238.831665,35.746223 
	C238.831665,33.050232 238.831665,30.306780 238.875931,27.076210 
z"/>
<path fill="#ACA7A0" opacity="1.000000" stroke="none" 
	d="
M440.208313,39.234039 
	C440.599396,38.739429 440.936737,38.725052 441.525757,38.746742 
	C441.777405,43.981102 441.777405,49.179390 441.777405,54.377682 
	C441.236481,54.390404 440.695526,54.403126 440.154602,54.415844 
	C440.154602,49.515320 440.154602,44.614796 440.208313,39.234039 
z"/>
<path fill="#FAF3E8" opacity="1.000000" stroke="none" 
	d="
M437.998444,39.550346 
	C437.998749,39.098114 438.389679,38.787140 438.626831,38.708637 
	C438.863953,43.031052 438.863953,47.431965 438.863953,51.832882 
	C438.575348,51.804008 438.286743,51.775139 437.998138,51.746265 
	C437.998138,47.831707 437.998138,43.917145 437.998444,39.550346 
z"/>
<path fill="#A3B8B6" opacity="1.000000" stroke="none" 
	d="
M206.589294,25.912090 
	C206.884506,28.061928 206.866470,30.190445 206.705811,32.755211 
	C206.226212,33.193352 205.901123,33.132122 205.339874,33.029865 
	C205.055756,30.989958 205.019653,28.927958 205.003754,26.424534 
	C205.441345,25.952330 205.858704,25.921549 206.589294,25.912090 
z"/>
<path fill="#145560" opacity="1.000000" stroke="none" 
	d="
M56.054241,29.920361 
	C57.389343,30.428841 58.724445,30.937323 60.059547,31.445803 
	C59.928562,31.803123 59.797577,32.160442 59.666592,32.517765 
	C58.431614,31.929050 57.196636,31.340336 55.975147,30.374138 
	C55.988640,29.996655 56.054241,29.920361 56.054241,29.920361 
z"/>
<path fill="#145560" opacity="1.000000" stroke="none" 
	d="
M55.949959,30.028822 
	C55.812828,29.894020 55.714378,29.727051 55.615929,29.560081 
	C55.712379,29.596703 55.808834,29.633322 55.979767,29.795151 
	C56.054241,29.920361 55.988640,29.996655 55.949959,30.028822 
z"/>
<path fill="#145560" opacity="1.000000" stroke="none" 
	d="
M377.048065,29.927700 
	C379.490906,30.318264 381.933746,30.708828 384.376587,31.099390 
	C381.937958,31.265631 379.411041,34.267128 376.983765,30.389442 
	C376.988708,29.997271 377.048065,29.927700 377.048065,29.927700 
z"/>
<path fill="#145560" opacity="1.000000" stroke="none" 
	d="
M376.953369,30.026272 
	C376.819946,29.892447 376.721924,29.729622 376.623871,29.566795 
	C376.717255,29.604494 376.810638,29.642193 376.976044,29.803795 
	C377.048065,29.927700 376.988708,29.997271 376.953369,30.026272 
z"/>
<path fill="#0B4E5A" opacity="1.000000" stroke="none" 
	d="
M309.459290,28.613434 
	C309.344391,29.057520 309.062439,29.326847 308.780518,29.596176 
	C308.669037,29.479450 308.557526,29.362720 308.446045,29.245995 
	C308.728119,28.976891 309.010193,28.707783 309.459290,28.613434 
z"/>
<path fill="#0F515D" opacity="1.000000" stroke="none" 
	d="
M186.411560,31.099758 
	C187.399948,30.339062 188.375885,29.909584 189.471146,29.427595 
	C189.407516,33.210495 189.407516,33.210495 186.411560,31.099758 
z"/>
</svg>